<?xml version="1.0" standalone="no"?>
<!DOCTYPE svg PUBLIC "-//W3C//DTD SVG 20010904//EN"
 "http://www.w3.org/TR/2001/REC-SVG-20010904/DTD/svg10.dtd">
<svg version="1.0" xmlns="http://www.w3.org/2000/svg"
 width="200.000000pt" height="200.000000pt" viewBox="0 0 200.000000 200.000000"
 preserveAspectRatio="xMidYMid meet">
<metadata>
Created by potrace 1.14, written by Peter Selinger 2001-2017
</metadata>
<g transform="translate(0.000000,200.000000) scale(0.100000,-0.100000)"
fill="#000000" stroke="none">
<path d="M0 1000 l0 -1000 1000 0 1000 0 0 1000 0 1000 -1000 0 -1000 0 0
-1000z m440 838 c11 -18 20 -36 20 -39 0 -4 -23 -11 -51 -16 l-50 -10 6 31
c12 58 16 66 36 66 11 0 28 -14 39 -32z m1150 25 c1 -5 4 -26 9 -49 l8 -41
-41 8 c-23 5 -47 8 -54 9 -9 0 -6 12 10 40 16 28 30 40 46 40 12 0 22 -3 22
-7z m-1080 -134 c7 -11 10 -22 8 -23 -6 -5 -146 -46 -157 -46 -6 0 -11 13 -11
30 0 24 5 31 28 36 15 3 41 10 57 14 49 13 64 11 75 -11z m1045 5 c50 -8 65
-20 65 -50 0 -29 -5 -29 -102 -1 l-78 23 16 23 c11 15 23 21 38 17 11 -2 39
-8 61 -12z m-25 -137 c60 -26 76 -37 78 -56 6 -42 -12 -43 -89 -4 -41 21 -78
39 -82 41 -5 2 -2 -9 6 -25 9 -16 23 -58 32 -93 9 -36 26 -75 38 -88 l22 -23
16 20 c17 21 17 20 68 -25 79 -71 135 -218 100 -261 -22 -25 -97 -55 -160 -62
l-57 -7 4 55 c3 46 1 40 -12 -29 -35 -193 -112 -370 -193 -443 -121 -109 -419
-124 -594 -29 -90 48 -170 194 -213 385 -13 61 -29 130 -34 152 -5 23 -6 75
-3 117 5 60 2 80 -10 99 -16 22 -15 24 3 44 11 12 30 55 41 96 11 41 27 84 35
97 8 12 12 22 10 22 -3 0 -42 -19 -86 -41 -44 -23 -82 -40 -84 -38 -2 2 -6 16
-10 31 -6 25 -2 29 41 48 119 53 174 72 191 64 9 -4 21 -6 26 -5 4 1 45 -4 90
-10 85 -13 158 -43 190 -78 22 -24 38 -28 30 -6 -8 19 36 20 88 1 32 -12 39
-11 50 1 27 33 100 64 183 79 47 8 94 12 104 9 10 -3 23 1 30 8 10 12 16 12
44 0 17 -8 66 -29 107 -46z m335 -64 l-6 -25 26 28 26 29 -6 -38 c-10 -60 -26
-89 -41 -76 -22 18 -44 3 -44 -31 0 -26 -3 -30 -28 -30 -37 0 -73 26 -53 39 7
5 23 6 35 3 19 -5 19 -3 -7 27 -28 34 -35 61 -16 61 7 0 18 -8 25 -17 12 -16
13 -14 14 20 0 43 14 49 26 10 6 -24 8 -25 12 -8 6 27 22 46 34 39 5 -3 7 -17
3 -31z m-1710 0 l7 -28 10 28 c12 34 28 26 28 -16 0 -28 1 -29 13 -12 16 21
39 12 30 -13 -3 -9 -15 -27 -26 -39 l-20 -23 31 0 c18 0 32 -4 32 -8 0 -18
-26 -32 -57 -32 -30 0 -33 3 -33 30 0 36 -27 52 -45 26 -11 -15 -14 -12 -29
24 -9 22 -16 50 -16 62 0 20 1 21 20 3 19 -18 20 -17 20 3 0 31 26 27 35 -5z
m312 -555 c-3 -8 -6 -5 -6 6 -1 11 2 17 5 13 3 -3 4 -12 1 -19z m17 -218 c18
0 25 -14 50 -91 32 -101 88 -195 136 -229 44 -31 123 -49 255 -56 125 -8 269
8 330 35 75 33 138 124 184 262 18 55 26 68 46 72 33 6 41 -6 55 -78 22 -115
-19 -237 -112 -332 -28 -29 -65 -57 -82 -64 -17 -7 -41 -22 -54 -33 -20 -18
-38 -21 -118 -23 -92 -2 -105 2 -83 24 6 6 8 21 4 33 -5 17 -10 19 -21 9 -8
-6 -14 -22 -14 -36 0 -21 -3 -23 -22 -17 -43 13 -83 36 -115 67 -18 17 -34 29
-36 26 -1 -2 -7 -17 -12 -33 -21 -62 -111 -93 -178 -61 -20 9 -39 25 -42 36
-4 10 -18 22 -33 25 -121 25 -205 99 -261 230 -28 64 -35 92 -35 149 0 39 5
87 12 107 l13 36 56 -29 c30 -16 65 -29 77 -29z"/>
<path d="M694 1482 c-108 -78 -129 -238 -42 -319 73 -69 206 -70 263 -2 l20
24 -26 -23 c-82 -72 -224 -34 -264 72 -24 61 -14 123 28 178 59 76 127 94 196
50 24 -15 25 -15 13 0 -19 24 -76 48 -115 48 -21 0 -48 -10 -73 -28z"/>
<path d="M1125 1492 c-16 -11 -37 -27 -45 -37 -12 -15 -9 -15 15 3 46 34 83
36 135 10 93 -48 133 -177 81 -261 -56 -90 -178 -109 -255 -40 l-31 28 25 -28
c40 -46 76 -60 141 -55 105 8 179 83 179 183 0 57 -18 100 -60 149 -59 67
-126 84 -185 48z"/>
<path d="M793 1335 c-33 -14 -43 -32 -43 -76 0 -37 40 -79 75 -79 55 0 94 76
65 130 -15 28 -61 40 -97 25z m72 -43 c0 -18 -20 -15 -23 4 -3 10 1 15 10 12
7 -3 13 -10 13 -16z"/>
<path d="M1115 1340 c-29 -11 -44 -31 -51 -68 -5 -26 -1 -36 24 -62 37 -37 74
-39 107 -5 32 31 33 76 3 109 -27 29 -55 38 -83 26z m70 -48 c0 -18 -20 -15
-23 4 -3 10 1 15 10 12 7 -3 13 -10 13 -16z"/>
<path d="M645 1080 c-55 -36 -79 -111 -56 -172 5 -13 24 -38 42 -56 l34 -33 5
28 c7 40 47 43 83 7 30 -29 32 -37 17 -64 -7 -13 -6 -19 6 -24 21 -8 34 1 34
25 0 15 7 19 39 19 45 0 65 -19 59 -55 -4 -17 -1 -25 8 -25 9 0 14 11 14 29 0
22 6 31 30 41 32 13 84 8 107 -11 7 -6 13 -22 13 -34 0 -18 4 -21 24 -18 22 5
24 8 15 31 -9 23 -7 30 12 45 29 23 51 18 67 -16 7 -15 17 -25 23 -22 5 4 2
17 -7 30 -15 23 -15 26 14 55 17 16 35 30 41 30 15 0 34 -39 27 -56 -4 -12 -2
-12 14 -4 26 14 66 69 74 103 10 42 -11 102 -45 131 -39 33 -48 33 -46 -1 2
-25 -2 -28 -35 -31 -30 -3 -40 1 -54 22 -19 30 -40 35 -24 7 16 -30 12 -59 -9
-71 -32 -17 -50 -12 -57 16 -10 38 -40 28 -36 -13 3 -27 -1 -34 -27 -47 -39
-20 -80 -20 -109 0 -19 13 -22 22 -17 45 4 18 3 29 -4 29 -6 0 -11 -13 -11
-30 0 -27 -3 -30 -33 -30 -44 0 -70 28 -65 71 4 40 -18 51 -32 15 -8 -22 -16
-26 -47 -26 -53 0 -67 12 -61 49 2 17 4 31 4 31 -1 0 -14 -9 -31 -20z"/>
</g>
</svg>
